<svg xmlns="http://www.w3.org/2000/svg" xmlns:xlink="http://www.w3.org/1999/xlink" width="2000" zoomAndPan="magnify" viewBox="0 0 1500 1499.999933" height="2000" preserveAspectRatio="xMidYMid meet" version="1.0"><defs><g/><clipPath id="1ab9e6e509"><path d="M 0.238281 0.078125 L 1068 0.078125 L 1068 243 L 0.238281 243 Z M 0.238281 0.078125 " clip-rule="nonzero"/></clipPath><clipPath id="1799030e48"><rect x="0" width="1068" y="0" height="243"/></clipPath><clipPath id="b41c8ea00e"><path d="M 215 239 L 1055 239 L 1055 524.960938 L 215 524.960938 Z M 215 239 " clip-rule="nonzero"/></clipPath><clipPath id="23f72f09b9"><rect x="0" width="840" y="0" height="286"/></clipPath><clipPath id="831a453620"><rect x="0" width="1068" y="0" height="525"/></clipPath><clipPath id="dac4f47fa8"><path d="M 295.066406 482.816406 L 389.679688 482.816406 L 389.679688 709.28125 L 295.066406 709.28125 Z M 295.066406 482.816406 " clip-rule="nonzero"/></clipPath><clipPath id="6c5a084a75"><path d="M 0.0664062 0.816406 L 94.679688 0.816406 L 94.679688 227.28125 L 0.0664062 227.28125 Z M 0.0664062 0.816406 " clip-rule="nonzero"/></clipPath><clipPath id="9859ab36a2"><rect x="0" width="95" y="0" height="228"/></clipPath><clipPath id="f9e541d342"><path d="M 295.066406 482.820312 L 389.566406 482.820312 L 389.566406 709.265625 L 295.066406 709.265625 Z M 295.066406 482.820312 " clip-rule="nonzero"/></clipPath><clipPath id="3da9e743ba"><path d="M 28 533 L 562 533 L 562 1128 L 28 1128 Z M 28 533 " clip-rule="nonzero"/></clipPath><clipPath id="3a07b7a16a"><path d="M 590.125 1044.160156 L 458.378906 1156.097656 L -0.304688 616.234375 L 131.445312 504.296875 Z M 590.125 1044.160156 " clip-rule="nonzero"/></clipPath><clipPath id="bdbf989c64"><path d="M 536.398438 1089.808594 L 512.105469 1110.449219 C 482.429688 1135.660156 437.941406 1132.042969 412.730469 1102.371094 L 45.640625 670.3125 C 20.429688 640.640625 24.046875 596.148438 53.71875 570.9375 L 78.015625 550.296875 C 107.6875 525.085938 152.179688 528.703125 177.390625 558.375 L 544.480469 990.433594 C 569.6875 1020.105469 566.070312 1064.597656 536.398438 1089.808594 Z M 536.398438 1089.808594 " clip-rule="nonzero"/></clipPath><clipPath id="91ee7c7a0b"><path d="M 0 0 L 534 0 L 534 595 L 0 595 Z M 0 0 " clip-rule="nonzero"/></clipPath><clipPath id="ddc426eb57"><path d="M 562.125 511.160156 L 430.378906 623.097656 L -28.304688 83.234375 L 103.445312 -28.703125 Z M 562.125 511.160156 " clip-rule="nonzero"/></clipPath><clipPath id="7424e29a4c"><path d="M 508.398438 556.808594 L 484.105469 577.449219 C 454.429688 602.660156 409.941406 599.042969 384.730469 569.371094 L 17.640625 137.3125 C -7.570312 107.640625 -3.953125 63.148438 25.71875 37.9375 L 50.015625 17.296875 C 79.6875 -7.914062 124.179688 -4.296875 149.390625 25.375 L 516.480469 457.433594 C 541.6875 487.105469 538.070312 531.597656 508.398438 556.808594 Z M 508.398438 556.808594 " clip-rule="nonzero"/></clipPath><clipPath id="bcb923a45c"><rect x="0" width="534" y="0" height="595"/></clipPath><clipPath id="9077361b47"><path d="M 28 533 L 562 533 L 562 1128 L 28 1128 Z M 28 533 " clip-rule="nonzero"/></clipPath><clipPath id="21abed7aec"><path d="M 590.125 1044.160156 L 458.097656 1156.335938 L -0.324219 616.785156 L 131.707031 504.609375 Z M 590.125 1044.160156 " clip-rule="nonzero"/></clipPath><clipPath id="bc599183f2"><path d="M 590.121094 1044.152344 L 457.347656 1156.957031 L -3.679688 614.332031 L 129.089844 501.527344 Z M 590.121094 1044.152344 " clip-rule="nonzero"/></clipPath><clipPath id="e8ce5724aa"><path d="M 536.394531 1089.796875 L 512.101562 1110.441406 C 482.429688 1135.648438 437.9375 1132.03125 412.730469 1102.363281 L 45.652344 670.320312 C 20.445312 640.648438 24.0625 596.15625 53.730469 570.949219 L 78.027344 550.304688 C 107.699219 525.097656 152.1875 528.714844 177.398438 558.386719 L 544.472656 990.425781 C 569.683594 1020.097656 566.066406 1064.589844 536.394531 1089.796875 Z M 536.394531 1089.796875 " clip-rule="nonzero"/></clipPath><clipPath id="52651e0d86"><path d="M 401.046875 917.40625 L 628 917.40625 L 628 1143.867188 L 401.046875 1143.867188 Z M 401.046875 917.40625 " clip-rule="nonzero"/></clipPath><clipPath id="8e96c14fc2"><path d="M 401.046875 917.40625 C 460.6875 917.40625 519.007812 941.5625 561.179688 983.734375 C 603.355469 1025.90625 627.511719 1084.226562 627.511719 1143.867188 L 401.046875 1143.867188 Z M 401.046875 917.40625 " clip-rule="nonzero"/></clipPath><clipPath id="ab079e6424"><path d="M 0.046875 0.40625 L 226.601562 0.40625 L 226.601562 226.867188 L 0.046875 226.867188 Z M 0.046875 0.40625 " clip-rule="nonzero"/></clipPath><clipPath id="036b664293"><path d="M 0.046875 0.40625 C 59.6875 0.40625 118.007812 24.5625 160.179688 66.734375 C 202.355469 108.90625 226.511719 167.226562 226.511719 226.867188 L 0.046875 226.867188 Z M 0.046875 0.40625 " clip-rule="nonzero"/></clipPath><clipPath id="38a731b8d1"><rect x="0" width="227" y="0" height="227"/></clipPath><clipPath id="e4f9e51748"><path d="M 401.058594 917.40625 L 627.511719 917.40625 L 627.511719 1143.859375 L 401.058594 1143.859375 Z M 401.058594 917.40625 " clip-rule="nonzero"/></clipPath><clipPath id="1192da7b73"><path d="M 401.058594 917.40625 C 460.695312 917.40625 519.011719 941.558594 561.183594 983.730469 C 603.355469 1025.902344 627.511719 1084.21875 627.511719 1143.859375 L 401.058594 1143.859375 Z M 401.058594 917.40625 " clip-rule="nonzero"/></clipPath><clipPath id="ff8f0d31a6"><path d="M 8 482.820312 L 305.113281 482.820312 L 305.113281 709.28125 L 8 709.28125 Z M 8 482.820312 " clip-rule="nonzero"/></clipPath><clipPath id="ec5bb79956"><path d="M 14.5625 558.347656 C 10.617188 569.957031 8.023438 583.15625 8.023438 596.113281 C 8.023438 609.066406 10.246094 621.53125 14.195312 633.019531 C 14.316406 633.265625 14.316406 633.507812 14.441406 633.753906 C 30.234375 676.894531 71.9375 708.671875 121.082031 709.28125 L 305.113281 709.28125 L 305.113281 482.820312 L 121.21875 482.820312 C 71.691406 483.429688 29.988281 514.714844 14.5625 558.347656 Z M 14.5625 558.347656 " clip-rule="nonzero"/></clipPath><clipPath id="d1e66667c6"><path d="M 0 0.820312 L 297.113281 0.820312 L 297.113281 227.28125 L 0 227.28125 Z M 0 0.820312 " clip-rule="nonzero"/></clipPath><clipPath id="942dd4c012"><path d="M 6.5625 76.347656 C 2.617188 87.957031 0.0234375 101.15625 0.0234375 114.113281 C 0.0234375 127.066406 2.246094 139.53125 6.195312 151.019531 C 6.316406 151.265625 6.316406 151.507812 6.441406 151.753906 C 22.234375 194.894531 63.9375 226.671875 113.082031 227.28125 L 297.113281 227.28125 L 297.113281 0.820312 L 113.21875 0.820312 C 63.691406 1.429688 21.988281 32.714844 6.5625 76.347656 Z M 6.5625 76.347656 " clip-rule="nonzero"/></clipPath><clipPath id="250c9996e8"><rect x="0" width="298" y="0" height="228"/></clipPath><clipPath id="d634e145d8"><path d="M 8.113281 482.820312 L 305.109375 482.820312 L 305.109375 709.273438 L 8.113281 709.273438 Z M 8.113281 482.820312 " clip-rule="nonzero"/></clipPath><clipPath id="83668e3197"><path d="M 14.574219 558.34375 C 10.625 569.953125 8.035156 583.152344 8.035156 596.105469 C 8.035156 609.058594 10.257812 621.527344 14.203125 633.011719 C 14.328125 633.257812 14.328125 633.503906 14.449219 633.746094 C 30.242188 676.886719 71.945312 708.660156 121.085938 709.273438 L 305.109375 709.273438 L 305.109375 482.820312 L 121.222656 482.820312 C 71.699219 483.429688 29.996094 514.714844 14.574219 558.34375 Z M 14.574219 558.34375 " clip-rule="nonzero"/></clipPath><clipPath id="d5bf8fbff7"><path d="M 388.863281 482.804688 L 615.324219 482.804688 L 615.324219 710 L 388.863281 710 Z M 388.863281 482.804688 " clip-rule="nonzero"/></clipPath><clipPath id="d5a72799d8"><path d="M 615.324219 482.804688 C 615.324219 542.449219 591.167969 600.765625 548.996094 642.941406 C 506.820312 685.113281 448.503906 709.269531 388.863281 709.269531 L 388.863281 482.804688 Z M 615.324219 482.804688 " clip-rule="nonzero"/></clipPath><clipPath id="fa1982a6bf"><path d="M 0.863281 0.804688 L 227.324219 0.804688 L 227.324219 227.441406 L 0.863281 227.441406 Z M 0.863281 0.804688 " clip-rule="nonzero"/></clipPath><clipPath id="2c728736f4"><path d="M 227.324219 0.804688 C 227.324219 60.449219 203.167969 118.765625 160.996094 160.941406 C 118.820312 203.113281 60.503906 227.269531 0.863281 227.269531 L 0.863281 0.804688 Z M 227.324219 0.804688 " clip-rule="nonzero"/></clipPath><clipPath id="8a8698edfb"><rect x="0" width="228" y="0" height="228"/></clipPath><clipPath id="4d5adb76e2"><path d="M 388.871094 482.816406 L 615.324219 482.816406 L 615.324219 709.269531 L 388.871094 709.269531 Z M 388.871094 482.816406 " clip-rule="nonzero"/></clipPath><clipPath id="2cb08ee595"><path d="M 615.324219 482.816406 C 615.324219 542.457031 591.167969 600.773438 549 642.941406 C 506.828125 685.113281 448.511719 709.269531 388.871094 709.269531 L 388.871094 482.816406 Z M 615.324219 482.816406 " clip-rule="nonzero"/></clipPath><clipPath id="bd06bfbda1"><path d="M 8 917.410156 L 257.507812 917.410156 L 257.507812 1143.875 L 8 1143.875 Z M 8 917.410156 " clip-rule="nonzero"/></clipPath><clipPath id="5b6fc222cb"><path d="M 14.566406 992.9375 C 10.617188 1004.550781 8.027344 1017.75 8.027344 1030.703125 C 8.027344 1043.65625 10.25 1056.125 14.199219 1067.613281 C 14.320312 1067.855469 14.320312 1068.101562 14.445312 1068.34375 C 30.238281 1111.488281 71.941406 1143.261719 120.027344 1143.875 L 257.507812 1143.875 L 257.507812 917.410156 L 120.128906 917.410156 C 71.695312 918.019531 29.992188 949.308594 14.566406 992.9375 Z M 14.566406 992.9375 " clip-rule="nonzero"/></clipPath><clipPath id="2053e20dc2"><path d="M 0 0.410156 L 249.507812 0.410156 L 249.507812 226.875 L 0 226.875 Z M 0 0.410156 " clip-rule="nonzero"/></clipPath><clipPath id="c5073230d0"><path d="M 6.566406 75.9375 C 2.617188 87.550781 0.0273438 100.75 0.0273438 113.703125 C 0.0273438 126.65625 2.25 139.125 6.199219 150.613281 C 6.320312 150.855469 6.320312 151.101562 6.445312 151.34375 C 22.238281 194.488281 63.941406 226.261719 112.027344 226.875 L 249.507812 226.875 L 249.507812 0.410156 L 112.128906 0.410156 C 63.695312 1.019531 21.992188 32.308594 6.566406 75.9375 Z M 6.566406 75.9375 " clip-rule="nonzero"/></clipPath><clipPath id="86207c2d88"><rect x="0" width="250" y="0" height="227"/></clipPath><clipPath id="b4147c1090"><path d="M 8 917.410156 L 257.503906 917.410156 L 257.503906 1143.863281 L 8 1143.863281 Z M 8 917.410156 " clip-rule="nonzero"/></clipPath><clipPath id="6cd26e2b70"><path d="M 14.574219 992.933594 C 10.625 1004.542969 8.035156 1017.742188 8.035156 1030.699219 C 8.035156 1043.652344 10.253906 1056.117188 14.203125 1067.605469 C 14.328125 1067.847656 14.328125 1068.09375 14.449219 1068.339844 C 30.242188 1111.476562 71.945312 1143.253906 120.027344 1143.863281 L 257.503906 1143.863281 L 257.503906 917.410156 L 120.132812 917.410156 C 71.699219 918.019531 29.996094 949.308594 14.574219 992.933594 Z M 14.574219 992.933594 " clip-rule="nonzero"/></clipPath><clipPath id="9442314bc0"><path d="M 254.769531 917.40625 L 403.554688 917.40625 L 403.554688 1143.867188 L 254.769531 1143.867188 Z M 254.769531 917.40625 " clip-rule="nonzero"/></clipPath><clipPath id="136facfa99"><path d="M 0.769531 0.40625 L 149.554688 0.40625 L 149.554688 226.867188 L 0.769531 226.867188 Z M 0.769531 0.40625 " clip-rule="nonzero"/></clipPath><clipPath id="24f2ce84f6"><rect x="0" width="150" y="0" height="227"/></clipPath><clipPath id="ddddf0aa08"><path d="M 254.769531 917.40625 L 403.269531 917.40625 L 403.269531 1143.859375 L 254.769531 1143.859375 Z M 254.769531 917.40625 " clip-rule="nonzero"/></clipPath><clipPath id="f638457e21"><path d="M 336.050781 919.363281 L 405.996094 919.363281 L 405.996094 1142.070312 L 336.050781 1142.070312 Z M 336.050781 919.363281 " clip-rule="nonzero"/></clipPath><clipPath id="24ef4df169"><path d="M 0.0507812 0.363281 L 69.996094 0.363281 L 69.996094 223.070312 L 0.0507812 223.070312 Z M 0.0507812 0.363281 " clip-rule="nonzero"/></clipPath><clipPath id="3744ac0635"><rect x="0" width="70" y="0" height="224"/></clipPath><clipPath id="34e4979754"><path d="M 295.066406 482.816406 L 389.679688 482.816406 L 389.679688 709.28125 L 295.066406 709.28125 Z M 295.066406 482.816406 " clip-rule="nonzero"/></clipPath><clipPath id="19e42b9dc9"><path d="M 0.0664062 0.816406 L 94.679688 0.816406 L 94.679688 227.28125 L 0.0664062 227.28125 Z M 0.0664062 0.816406 " clip-rule="nonzero"/></clipPath><clipPath id="a99c994aa7"><rect x="0" width="95" y="0" height="228"/></clipPath><clipPath id="90f3012299"><path d="M 295.066406 482.820312 L 389.566406 482.820312 L 389.566406 709.265625 L 295.066406 709.265625 Z M 295.066406 482.820312 " clip-rule="nonzero"/></clipPath><clipPath id="a9eb3cccfa"><path d="M 28 533 L 562 533 L 562 1128 L 28 1128 Z M 28 533 " clip-rule="nonzero"/></clipPath><clipPath id="f29780b6d7"><path d="M 590.125 1044.160156 L 458.378906 1156.097656 L -0.304688 616.234375 L 131.445312 504.296875 Z M 590.125 1044.160156 " clip-rule="nonzero"/></clipPath><clipPath id="e22b2a336a"><path d="M 536.398438 1089.808594 L 512.105469 1110.449219 C 482.429688 1135.660156 437.941406 1132.042969 412.730469 1102.371094 L 45.640625 670.3125 C 20.429688 640.640625 24.046875 596.148438 53.71875 570.9375 L 78.015625 550.296875 C 107.6875 525.085938 152.179688 528.703125 177.390625 558.375 L 544.480469 990.433594 C 569.6875 1020.105469 566.070312 1064.597656 536.398438 1089.808594 Z M 536.398438 1089.808594 " clip-rule="nonzero"/></clipPath><clipPath id="d387358af7"><path d="M 0 0 L 534 0 L 534 595 L 0 595 Z M 0 0 " clip-rule="nonzero"/></clipPath><clipPath id="60e93df192"><path d="M 562.125 511.160156 L 430.378906 623.097656 L -28.304688 83.234375 L 103.445312 -28.703125 Z M 562.125 511.160156 " clip-rule="nonzero"/></clipPath><clipPath id="5e380b4a74"><path d="M 508.398438 556.808594 L 484.105469 577.449219 C 454.429688 602.660156 409.941406 599.042969 384.730469 569.371094 L 17.640625 137.3125 C -7.570312 107.640625 -3.953125 63.148438 25.71875 37.9375 L 50.015625 17.296875 C 79.6875 -7.914062 124.179688 -4.296875 149.390625 25.375 L 516.480469 457.433594 C 541.6875 487.105469 538.070312 531.597656 508.398438 556.808594 Z M 508.398438 556.808594 " clip-rule="nonzero"/></clipPath><clipPath id="4773a1b60b"><rect x="0" width="534" y="0" height="595"/></clipPath><clipPath id="859fc11e63"><path d="M 28 533 L 562 533 L 562 1128 L 28 1128 Z M 28 533 " clip-rule="nonzero"/></clipPath><clipPath id="0acbc7e3ee"><path d="M 590.125 1044.160156 L 458.097656 1156.335938 L -0.324219 616.785156 L 131.707031 504.609375 Z M 590.125 1044.160156 " clip-rule="nonzero"/></clipPath><clipPath id="170a35b99e"><path d="M 590.121094 1044.152344 L 457.347656 1156.957031 L -3.679688 614.332031 L 129.089844 501.527344 Z M 590.121094 1044.152344 " clip-rule="nonzero"/></clipPath><clipPath id="43263a3a1f"><path d="M 536.394531 1089.796875 L 512.101562 1110.441406 C 482.429688 1135.648438 437.9375 1132.03125 412.730469 1102.363281 L 45.652344 670.320312 C 20.445312 640.648438 24.0625 596.15625 53.730469 570.949219 L 78.027344 550.304688 C 107.699219 525.097656 152.1875 528.714844 177.398438 558.386719 L 544.472656 990.425781 C 569.683594 1020.097656 566.066406 1064.589844 536.394531 1089.796875 Z M 536.394531 1089.796875 " clip-rule="nonzero"/></clipPath><clipPath id="9e79b7fa79"><path d="M 401.046875 917.40625 L 628 917.40625 L 628 1143.867188 L 401.046875 1143.867188 Z M 401.046875 917.40625 " clip-rule="nonzero"/></clipPath><clipPath id="f247d44b08"><path d="M 401.046875 917.40625 C 460.6875 917.40625 519.007812 941.5625 561.179688 983.734375 C 603.355469 1025.90625 627.511719 1084.226562 627.511719 1143.867188 L 401.046875 1143.867188 Z M 401.046875 917.40625 " clip-rule="nonzero"/></clipPath><clipPath id="09058ca372"><path d="M 0.046875 0.40625 L 226.601562 0.40625 L 226.601562 226.867188 L 0.046875 226.867188 Z M 0.046875 0.40625 " clip-rule="nonzero"/></clipPath><clipPath id="66e62b76d8"><path d="M 0.046875 0.40625 C 59.6875 0.40625 118.007812 24.5625 160.179688 66.734375 C 202.355469 108.90625 226.511719 167.226562 226.511719 226.867188 L 0.046875 226.867188 Z M 0.046875 0.40625 " clip-rule="nonzero"/></clipPath><clipPath id="94ad5c821d"><rect x="0" width="227" y="0" height="227"/></clipPath><clipPath id="1c940676ba"><path d="M 401.058594 917.40625 L 627.511719 917.40625 L 627.511719 1143.859375 L 401.058594 1143.859375 Z M 401.058594 917.40625 " clip-rule="nonzero"/></clipPath><clipPath id="5e9bcc75c1"><path d="M 401.058594 917.40625 C 460.695312 917.40625 519.011719 941.558594 561.183594 983.730469 C 603.355469 1025.902344 627.511719 1084.21875 627.511719 1143.859375 L 401.058594 1143.859375 Z M 401.058594 917.40625 " clip-rule="nonzero"/></clipPath><clipPath id="b91e96675a"><path d="M 8 482.820312 L 305.113281 482.820312 L 305.113281 709.28125 L 8 709.28125 Z M 8 482.820312 " clip-rule="nonzero"/></clipPath><clipPath id="359d9b90da"><path d="M 14.5625 558.347656 C 10.617188 569.957031 8.023438 583.15625 8.023438 596.113281 C 8.023438 609.066406 10.246094 621.53125 14.195312 633.019531 C 14.316406 633.265625 14.316406 633.507812 14.441406 633.753906 C 30.234375 676.894531 71.9375 708.671875 121.082031 709.28125 L 305.113281 709.28125 L 305.113281 482.820312 L 121.21875 482.820312 C 71.691406 483.429688 29.988281 514.714844 14.5625 558.347656 Z M 14.5625 558.347656 " clip-rule="nonzero"/></clipPath><clipPath id="a3eed34d27"><path d="M 0 0.820312 L 297.113281 0.820312 L 297.113281 227.28125 L 0 227.28125 Z M 0 0.820312 " clip-rule="nonzero"/></clipPath><clipPath id="d55c49fd22"><path d="M 6.5625 76.347656 C 2.617188 87.957031 0.0234375 101.15625 0.0234375 114.113281 C 0.0234375 127.066406 2.246094 139.53125 6.195312 151.019531 C 6.316406 151.265625 6.316406 151.507812 6.441406 151.753906 C 22.234375 194.894531 63.9375 226.671875 113.082031 227.28125 L 297.113281 227.28125 L 297.113281 0.820312 L 113.21875 0.820312 C 63.691406 1.429688 21.988281 32.714844 6.5625 76.347656 Z M 6.5625 76.347656 " clip-rule="nonzero"/></clipPath><clipPath id="3ce3fa0c4b"><rect x="0" width="298" y="0" height="228"/></clipPath><clipPath id="1fc0b6ee3a"><path d="M 8.113281 482.820312 L 305.109375 482.820312 L 305.109375 709.273438 L 8.113281 709.273438 Z M 8.113281 482.820312 " clip-rule="nonzero"/></clipPath><clipPath id="e444befda4"><path d="M 14.574219 558.34375 C 10.625 569.953125 8.035156 583.152344 8.035156 596.105469 C 8.035156 609.058594 10.257812 621.527344 14.203125 633.011719 C 14.328125 633.257812 14.328125 633.503906 14.449219 633.746094 C 30.242188 676.886719 71.945312 708.660156 121.085938 709.273438 L 305.109375 709.273438 L 305.109375 482.820312 L 121.222656 482.820312 C 71.699219 483.429688 29.996094 514.714844 14.574219 558.34375 Z M 14.574219 558.34375 " clip-rule="nonzero"/></clipPath><clipPath id="68ec2fcd0d"><path d="M 388.863281 482.804688 L 615.324219 482.804688 L 615.324219 710 L 388.863281 710 Z M 388.863281 482.804688 " clip-rule="nonzero"/></clipPath><clipPath id="d1a41d0873"><path d="M 615.324219 482.804688 C 615.324219 542.449219 591.167969 600.765625 548.996094 642.941406 C 506.820312 685.113281 448.503906 709.269531 388.863281 709.269531 L 388.863281 482.804688 Z M 615.324219 482.804688 " clip-rule="nonzero"/></clipPath><clipPath id="10e24b9b72"><path d="M 0.863281 0.804688 L 227.324219 0.804688 L 227.324219 227.441406 L 0.863281 227.441406 Z M 0.863281 0.804688 " clip-rule="nonzero"/></clipPath><clipPath id="5d4c5254eb"><path d="M 227.324219 0.804688 C 227.324219 60.449219 203.167969 118.765625 160.996094 160.941406 C 118.820312 203.113281 60.503906 227.269531 0.863281 227.269531 L 0.863281 0.804688 Z M 227.324219 0.804688 " clip-rule="nonzero"/></clipPath><clipPath id="9cc04716d5"><rect x="0" width="228" y="0" height="228"/></clipPath><clipPath id="d4f4dff88e"><path d="M 388.871094 482.816406 L 615.324219 482.816406 L 615.324219 709.269531 L 388.871094 709.269531 Z M 388.871094 482.816406 " clip-rule="nonzero"/></clipPath><clipPath id="f2ddfb21d1"><path d="M 615.324219 482.816406 C 615.324219 542.457031 591.167969 600.773438 549 642.941406 C 506.828125 685.113281 448.511719 709.269531 388.871094 709.269531 L 388.871094 482.816406 Z M 615.324219 482.816406 " clip-rule="nonzero"/></clipPath><clipPath id="92efa52058"><path d="M 8 917.40625 L 255.613281 917.40625 L 255.613281 1143.871094 L 8 1143.871094 Z M 8 917.40625 " clip-rule="nonzero"/></clipPath><clipPath id="12c6b2e720"><path d="M 14.566406 992.9375 C 10.617188 1004.546875 8.027344 1017.746094 8.027344 1030.699219 C 8.027344 1043.65625 10.246094 1056.121094 14.195312 1067.609375 C 14.320312 1067.855469 14.320312 1068.097656 14.441406 1068.34375 C 30.234375 1111.484375 71.9375 1143.261719 119.984375 1143.871094 L 255.613281 1143.871094 L 255.613281 917.40625 L 120.085938 917.40625 C 71.691406 918.019531 29.988281 949.304688 14.566406 992.9375 Z M 14.566406 992.9375 " clip-rule="nonzero"/></clipPath><clipPath id="136a3c81f7"><path d="M 0 0.40625 L 247.613281 0.40625 L 247.613281 226.871094 L 0 226.871094 Z M 0 0.40625 " clip-rule="nonzero"/></clipPath><clipPath id="0188aa1edd"><path d="M 6.566406 75.9375 C 2.617188 87.546875 0.0273438 100.746094 0.0273438 113.699219 C 0.0273438 126.65625 2.246094 139.121094 6.195312 150.609375 C 6.320312 150.855469 6.320312 151.097656 6.441406 151.34375 C 22.234375 194.484375 63.9375 226.261719 111.984375 226.871094 L 247.613281 226.871094 L 247.613281 0.40625 L 112.085938 0.40625 C 63.691406 1.019531 21.988281 32.304688 6.566406 75.9375 Z M 6.566406 75.9375 " clip-rule="nonzero"/></clipPath><clipPath id="d6bd589e91"><rect x="0" width="248" y="0" height="227"/></clipPath><clipPath id="f107ec657d"><path d="M 8.113281 917.40625 L 255.609375 917.40625 L 255.609375 1143.859375 L 8.113281 1143.859375 Z M 8.113281 917.40625 " clip-rule="nonzero"/></clipPath><clipPath id="361b156289"><path d="M 14.574219 992.933594 C 10.625 1004.542969 8.035156 1017.742188 8.035156 1030.695312 C 8.035156 1043.648438 10.253906 1056.113281 14.203125 1067.601562 C 14.328125 1067.847656 14.328125 1068.089844 14.449219 1068.335938 C 30.242188 1111.476562 71.945312 1143.25 119.988281 1143.859375 L 255.609375 1143.859375 L 255.609375 917.40625 L 120.085938 917.40625 C 71.699219 918.019531 29.996094 949.304688 14.574219 992.933594 Z M 14.574219 992.933594 " clip-rule="nonzero"/></clipPath><clipPath id="6988d1f7cf"><path d="M 251.125 917.40625 L 403.554688 917.40625 L 403.554688 1143.867188 L 251.125 1143.867188 Z M 251.125 917.40625 " clip-rule="nonzero"/></clipPath><clipPath id="5b2c5a976c"><path d="M 0.125 0.40625 L 152.554688 0.40625 L 152.554688 226.867188 L 0.125 226.867188 Z M 0.125 0.40625 " clip-rule="nonzero"/></clipPath><clipPath id="6259e03e34"><rect x="0" width="153" y="0" height="227"/></clipPath><clipPath id="14c3013c6a"><path d="M 251.125 917.40625 L 403.375 917.40625 L 403.375 1143.859375 L 251.125 1143.859375 Z M 251.125 917.40625 " clip-rule="nonzero"/></clipPath><clipPath id="06eb7801e8"><path d="M 336.050781 919.363281 L 405.996094 919.363281 L 405.996094 1142.070312 L 336.050781 1142.070312 Z M 336.050781 919.363281 " clip-rule="nonzero"/></clipPath><clipPath id="b6dae82ac8"><path d="M 0.0507812 0.363281 L 69.996094 0.363281 L 69.996094 223.070312 L 0.0507812 223.070312 Z M 0.0507812 0.363281 " clip-rule="nonzero"/></clipPath><clipPath id="856fd3e065"><rect x="0" width="70" y="0" height="224"/></clipPath><clipPath id="6a188dab52"><path d="M 229.421875 918.878906 L 255.621094 918.878906 L 255.621094 1142.070312 L 229.421875 1142.070312 Z M 229.421875 918.878906 " clip-rule="nonzero"/></clipPath><clipPath id="01b4871e80"><path d="M 0.421875 0.878906 L 26.621094 0.878906 L 26.621094 224.070312 L 0.421875 224.070312 Z M 0.421875 0.878906 " clip-rule="nonzero"/></clipPath><clipPath id="ce09dda7d6"><rect x="0" width="27" y="0" height="225"/></clipPath><clipPath id="c022cc0ee4"><path d="M 302.957031 484.453125 L 348.734375 484.453125 L 348.734375 707.644531 L 302.957031 707.644531 Z M 302.957031 484.453125 " clip-rule="nonzero"/></clipPath><clipPath id="ad18e20b3b"><path d="M 0.957031 0.453125 L 46.734375 0.453125 L 46.734375 223.644531 L 0.957031 223.644531 Z M 0.957031 0.453125 " clip-rule="nonzero"/></clipPath><clipPath id="057adfa0c5"><rect x="0" width="47" y="0" height="224"/></clipPath><clipPath id="93ad30a1f6"><path d="M 348.734375 484.453125 L 418.683594 484.453125 L 418.683594 707.683594 L 348.734375 707.683594 Z M 348.734375 484.453125 " clip-rule="nonzero"/></clipPath><clipPath id="b912fab966"><path d="M 383.707031 484.453125 C 392.984375 484.453125 401.878906 488.136719 408.4375 494.695312 C 414.996094 501.253906 418.683594 510.152344 418.683594 519.425781 L 418.683594 672.671875 C 418.683594 681.945312 414.996094 690.839844 408.4375 697.402344 C 401.878906 703.960938 392.984375 707.644531 383.707031 707.644531 C 374.433594 707.644531 365.539062 703.960938 358.976562 697.402344 C 352.417969 690.839844 348.734375 681.945312 348.734375 672.671875 L 348.734375 519.425781 C 348.734375 510.152344 352.417969 501.253906 358.976562 494.695312 C 365.539062 488.136719 374.433594 484.453125 383.707031 484.453125 Z M 383.707031 484.453125 " clip-rule="nonzero"/></clipPath><clipPath id="dc58d0aa18"><path d="M 0.734375 0.453125 L 70.683594 0.453125 L 70.683594 223.683594 L 0.734375 223.683594 Z M 0.734375 0.453125 " clip-rule="nonzero"/></clipPath><clipPath id="91042038ed"><path d="M 35.707031 0.453125 C 44.984375 0.453125 53.878906 4.136719 60.4375 10.695312 C 66.996094 17.253906 70.683594 26.152344 70.683594 35.425781 L 70.683594 188.671875 C 70.683594 197.945312 66.996094 206.839844 60.4375 213.402344 C 53.878906 219.960938 44.984375 223.644531 35.707031 223.644531 C 26.433594 223.644531 17.539062 219.960938 10.976562 213.402344 C 4.417969 206.839844 0.734375 197.945312 0.734375 188.671875 L 0.734375 35.425781 C 0.734375 26.152344 4.417969 17.253906 10.976562 10.695312 C 17.539062 4.136719 26.433594 0.453125 35.707031 0.453125 Z M 35.707031 0.453125 " clip-rule="nonzero"/></clipPath><clipPath id="7a0e14c4aa"><rect x="0" width="71" y="0" height="224"/></clipPath></defs><g transform="matrix(1, 0, 0, 1, 432, 664)"><g clip-path="url(#831a453620)"><g clip-path="url(#1ab9e6e509)"><g transform="matrix(1, 0, 0, 1, 0, 0.000000000000113687)"><g clip-path="url(#1799030e48)"><g fill="#ffffff" fill-opacity="1"><g transform="translate(0.344908, 201.695476)"><g><path d="M 169.015625 -160.96875 L 169.015625 -128.765625 L 40.234375 -128.765625 L 40.234375 -96.578125 L 136.8125 -96.578125 C 142.71875 -96.578125 148.117188 -95.132812 153.015625 -92.25 C 157.910156 -89.363281 161.800781 -85.472656 164.6875 -80.578125 C 167.570312 -75.679688 169.015625 -70.285156 169.015625 -64.390625 L 169.015625 -32.1875 C 169.015625 -26.289062 167.570312 -20.894531 164.6875 -16 C 161.800781 -11.101562 157.910156 -7.210938 153.015625 -4.328125 C 148.117188 -1.441406 142.71875 0 136.8125 0 L 8.046875 0 L 8.046875 -32.1875 L 136.8125 -32.1875 L 136.8125 -64.390625 L 40.234375 -64.390625 C 34.335938 -64.390625 28.941406 -65.828125 24.046875 -68.703125 C 19.148438 -71.585938 15.257812 -75.476562 12.375 -80.375 C 9.488281 -85.269531 8.046875 -90.671875 8.046875 -96.578125 L 8.046875 -128.765625 C 8.046875 -134.671875 9.488281 -140.070312 12.375 -144.96875 C 15.257812 -149.863281 19.148438 -153.753906 24.046875 -156.640625 C 28.941406 -159.523438 34.335938 -160.96875 40.234375 -160.96875 Z M 169.015625 -160.96875 "/></g></g></g><g fill="#ffffff" fill-opacity="1"><g transform="translate(177.383685, 201.695476)"><g><path d="M 169.015625 -160.96875 L 169.015625 -128.765625 L 104.625 -128.765625 L 104.625 0 L 72.4375 0 L 72.4375 -128.765625 L 8.046875 -128.765625 L 8.046875 -160.96875 Z M 169.015625 -160.96875 "/></g></g></g><g fill="#ffffff" fill-opacity="1"><g transform="translate(354.422462, 201.695476)"><g><path d="M 136.8125 0 L 40.234375 0 C 34.335938 0 28.941406 -1.441406 24.046875 -4.328125 C 19.148438 -7.210938 15.257812 -11.101562 12.375 -16 C 9.488281 -20.894531 8.046875 -26.289062 8.046875 -32.1875 L 8.046875 -160.96875 L 40.234375 -160.96875 L 40.234375 -32.1875 L 136.8125 -32.1875 L 136.8125 -160.96875 L 169.015625 -160.96875 L 169.015625 -32.1875 C 169.015625 -26.289062 167.570312 -20.894531 164.6875 -16 C 161.800781 -11.101562 157.910156 -7.210938 153.015625 -4.328125 C 148.117188 -1.441406 142.71875 0 136.8125 0 Z M 136.8125 0 "/></g></g></g><g fill="#ffffff" fill-opacity="1"><g transform="translate(531.461239, 201.695476)"><g><path d="M 136.8125 0 L 8.046875 0 L 8.046875 -160.96875 L 136.8125 -160.96875 C 142.71875 -160.96875 148.117188 -159.523438 153.015625 -156.640625 C 157.910156 -153.753906 161.800781 -149.863281 164.6875 -144.96875 C 167.570312 -140.070312 169.015625 -134.671875 169.015625 -128.765625 L 169.015625 -32.1875 C 169.015625 -26.289062 167.570312 -20.894531 164.6875 -16 C 161.800781 -11.101562 157.910156 -7.210938 153.015625 -4.328125 C 148.117188 -1.441406 142.71875 0 136.8125 0 Z M 40.234375 -128.765625 L 40.234375 -32.1875 L 136.8125 -32.1875 L 136.8125 -128.765625 Z M 40.234375 -128.765625 "/></g></g></g><g fill="#ffffff" fill-opacity="1"><g transform="translate(708.500016, 201.695476)"><g><path d="M 169.015625 0 L 8.046875 0 L 8.046875 -32.1875 L 72.4375 -32.1875 L 72.4375 -128.765625 L 8.046875 -128.765625 L 8.046875 -160.96875 L 169.015625 -160.96875 L 169.015625 -128.765625 L 104.625 -128.765625 L 104.625 -32.1875 L 169.015625 -32.1875 Z M 169.015625 0 "/></g></g></g><g fill="#ffffff" fill-opacity="1"><g transform="translate(885.538793, 201.695476)"><g><path d="M 136.8125 0 L 40.234375 0 C 34.335938 0 28.941406 -1.441406 24.046875 -4.328125 C 19.148438 -7.210938 15.257812 -11.101562 12.375 -16 C 9.488281 -20.894531 8.046875 -26.289062 8.046875 -32.1875 L 8.046875 -128.765625 C 8.046875 -134.671875 9.488281 -140.070312 12.375 -144.96875 C 15.257812 -149.863281 19.148438 -153.753906 24.046875 -156.640625 C 28.941406 -159.523438 34.335938 -160.96875 40.234375 -160.96875 L 136.8125 -160.96875 C 142.71875 -160.96875 148.117188 -159.523438 153.015625 -156.640625 C 157.910156 -153.753906 161.800781 -149.863281 164.6875 -144.96875 C 167.570312 -140.070312 169.015625 -134.671875 169.015625 -128.765625 L 169.015625 -32.1875 C 169.015625 -26.425781 167.570312 -21.097656 164.6875 -16.203125 C 161.800781 -11.304688 157.941406 -7.378906 153.109375 -4.421875 C 148.285156 -1.472656 142.851562 0 136.8125 0 Z M 40.234375 -128.765625 L 40.234375 -32.1875 L 136.8125 -32.1875 L 136.8125 -128.765625 Z M 40.234375 -128.765625 "/></g></g></g><g fill="#ffffff" fill-opacity="1"><g transform="translate(1062.585262, 201.695476)"><g/></g></g></g></g></g><g clip-path="url(#b41c8ea00e)"><g transform="matrix(1, 0, 0, 1, 215, 239)"><g clip-path="url(#23f72f09b9)"><g fill="#ffffff" fill-opacity="1"><g transform="translate(0.917888, 238.223429)"><g><path d="M 199.84375 -190.328125 L 199.84375 -152.265625 L 47.578125 -152.265625 L 47.578125 -114.1875 L 199.84375 -114.1875 L 199.84375 -76.125 L 47.578125 -76.125 L 47.578125 0 L 9.515625 0 L 9.515625 -152.265625 C 9.515625 -159.242188 11.21875 -165.625 14.625 -171.40625 C 18.039062 -177.195312 22.640625 -181.796875 28.421875 -185.203125 C 34.210938 -188.617188 40.597656 -190.328125 47.578125 -190.328125 Z M 199.84375 -190.328125 "/></g></g></g><g fill="#ffffff" fill-opacity="1"><g transform="translate(210.273356, 238.223429)"><g><path d="M 161.78125 0 L 47.578125 0 C 40.597656 0 34.210938 -1.703125 28.421875 -5.109375 C 22.640625 -8.523438 18.039062 -13.125 14.625 -18.90625 C 11.21875 -24.695312 9.515625 -31.082031 9.515625 -38.0625 L 9.515625 -152.265625 C 9.515625 -159.242188 11.21875 -165.625 14.625 -171.40625 C 18.039062 -177.195312 22.640625 -181.796875 28.421875 -185.203125 C 34.210938 -188.617188 40.597656 -190.328125 47.578125 -190.328125 L 161.78125 -190.328125 C 168.757812 -190.328125 175.140625 -188.617188 180.921875 -185.203125 C 186.710938 -181.796875 191.3125 -177.195312 194.71875 -171.40625 C 198.132812 -165.625 199.84375 -159.242188 199.84375 -152.265625 L 199.84375 -38.0625 C 199.84375 -31.238281 198.132812 -24.929688 194.71875 -19.140625 C 191.3125 -13.359375 186.753906 -8.722656 181.046875 -5.234375 C 175.335938 -1.742188 168.914062 0 161.78125 0 Z M 47.578125 -152.265625 L 47.578125 -38.0625 L 161.78125 -38.0625 L 161.78125 -152.265625 Z M 47.578125 -152.265625 "/></g></g></g><g fill="#ffffff" fill-opacity="1"><g transform="translate(419.628825, 238.223429)"><g><path d="M 199.84375 -152.265625 L 199.84375 -114.1875 C 199.84375 -107.21875 198.132812 -100.835938 194.71875 -95.046875 C 191.3125 -89.253906 186.710938 -84.648438 180.921875 -81.234375 C 175.140625 -77.828125 168.757812 -76.125 161.78125 -76.125 L 123.71875 -76.125 L 161.78125 -38.0625 L 199.84375 -38.0625 L 199.84375 0 L 154.15625 0 C 148.769531 0 144.171875 -1.898438 140.359375 -5.703125 L 69.9375 -76.125 L 47.578125 -76.125 L 47.578125 0 L 9.515625 0 L 9.515625 -190.328125 L 161.78125 -190.328125 C 168.757812 -190.328125 175.140625 -188.617188 180.921875 -185.203125 C 186.710938 -181.796875 191.3125 -177.195312 194.71875 -171.40625 C 198.132812 -165.625 199.84375 -159.242188 199.84375 -152.265625 Z M 161.78125 -152.265625 L 47.578125 -152.265625 L 47.578125 -114.1875 L 161.78125 -114.1875 Z M 161.78125 -152.265625 "/></g></g></g><g fill="#ffffff" fill-opacity="1"><g transform="translate(628.984293, 238.223429)"><g><path d="M 47.578125 -190.328125 L 161.78125 -190.328125 C 168.757812 -190.328125 175.140625 -188.617188 180.921875 -185.203125 C 186.710938 -181.796875 191.3125 -177.195312 194.71875 -171.40625 C 198.132812 -165.625 199.84375 -159.242188 199.84375 -152.265625 L 199.84375 0 L 161.78125 0 L 161.78125 -152.265625 L 123.71875 -152.265625 L 123.71875 0 L 85.640625 0 L 85.640625 -152.265625 L 47.578125 -152.265625 L 47.578125 0 L 9.515625 0 L 9.515625 -152.265625 C 9.515625 -159.242188 11.21875 -165.625 14.625 -171.40625 C 18.039062 -177.195312 22.640625 -181.796875 28.421875 -185.203125 C 34.210938 -188.617188 40.597656 -190.328125 47.578125 -190.328125 Z M 47.578125 -190.328125 "/></g></g></g></g></g></g></g></g><g clip-path="url(#dac4f47fa8)"><g transform="matrix(1, 0, 0, 1, 295, 482)"><g clip-path="url(#9859ab36a2)"><g clip-path="url(#6c5a084a75)"><path fill="#000000" d="M 0.0664062 0.816406 L 94.679688 0.816406 L 94.679688 227.371094 L 0.0664062 227.371094 Z M 0.0664062 0.816406 " fill-opacity="1" fill-rule="nonzero"/></g></g></g></g><g clip-path="url(#f9e541d342)"><path stroke-linecap="butt" transform="matrix(0.75, 0, 0, 0.75, 295.066765, 482.820586)" fill="none" stroke-linejoin="miter" d="M -0.00047798 -0.000365217 L 126.140158 -0.000365217 L 126.140158 301.926744 L -0.00047798 301.926744 Z M -0.00047798 -0.000365217 " stroke="#000000" stroke-width="8" stroke-opacity="1" stroke-miterlimit="4"/></g><g clip-path="url(#3da9e743ba)"><g clip-path="url(#3a07b7a16a)"><g clip-path="url(#bdbf989c64)"><g transform="matrix(1, 0, 0, 1, 28, 533)"><g clip-path="url(#bcb923a45c)"><g clip-path="url(#91ee7c7a0b)"><g clip-path="url(#ddc426eb57)"><g clip-path="url(#7424e29a4c)"><path fill="#d9d9d9" d="M 562.125 511.160156 L 430.378906 623.097656 L -27.867188 83.75 L 103.878906 -28.1875 Z M 562.125 511.160156 " fill-opacity="1" fill-rule="nonzero"/></g></g></g></g></g></g></g></g><g clip-path="url(#9077361b47)"><g clip-path="url(#21abed7aec)"><g clip-path="url(#bc599183f2)"><g clip-path="url(#e8ce5724aa)"><path stroke-linecap="butt" transform="matrix(-0.571559, 0.485613, -0.485613, -0.571559, 590.119855, 1044.152242)" fill="none" stroke-linejoin="miter" d="M 93.996157 0.00196542 L 136.503048 -0.0026396 C 188.414337 0.000449522 230.500327 42.086539 230.50061 93.993858 L 230.502738 849.898053 C 230.499649 901.809342 188.41356 943.895332 136.50624 943.895615 L 93.99538 943.896848 C 42.084092 943.893759 0.00207054 901.811042 -0.00218181 849.90035 L -0.000340821 93.999527 C -0.00122086 42.084867 42.084868 -0.00112371 93.996157 0.00196542 Z M 93.996157 0.00196542 " stroke="#000000" stroke-width="8" stroke-opacity="1" stroke-miterlimit="4"/></g></g></g></g><g clip-path="url(#52651e0d86)"><g clip-path="url(#8e96c14fc2)"><g transform="matrix(1, 0, 0, 1, 401, 917)"><g clip-path="url(#38a731b8d1)"><g clip-path="url(#ab079e6424)"><g clip-path="url(#036b664293)"><path fill="#ff914d" d="M 226.511719 0.40625 L 226.511719 226.867188 L 0.046875 226.867188 L 0.046875 0.40625 Z M 226.511719 0.40625 " fill-opacity="1" fill-rule="nonzero"/></g></g></g></g></g></g><g clip-path="url(#e4f9e51748)"><g clip-path="url(#1192da7b73)"><path stroke-linecap="butt" transform="matrix(0, 0.75, -0.75, 0, 627.511083, 917.404893)" fill="none" stroke-linejoin="miter" d="M 0.00180936 301.936679 C 0.00180936 222.421047 32.204937 144.665832 88.434109 88.43666 C 144.66328 32.207489 222.418495 -0.000847266 301.939335 -0.000847266 L 301.939335 301.936679 Z M 0.00180936 301.936679 " stroke="#000000" stroke-width="8" stroke-opacity="1" stroke-miterlimit="4"/></g></g><g clip-path="url(#ff8f0d31a6)"><g clip-path="url(#ec5bb79956)"><g transform="matrix(1, 0, 0, 1, 8, 482)"><g clip-path="url(#250c9996e8)"><g clip-path="url(#d1e66667c6)"><g clip-path="url(#942dd4c012)"><path fill="#ffffff" d="M 297.113281 0.820312 L 297.113281 227.28125 L -0.121094 227.28125 L -0.121094 0.820312 Z M 297.113281 0.820312 " fill-opacity="1" fill-rule="nonzero"/></g></g></g></g></g></g><g clip-path="url(#d634e145d8)"><g clip-path="url(#83668e3197)"><path stroke-linecap="butt" transform="matrix(0, 0.75, -0.75, 0, 305.110145, 482.818474)" fill="none" stroke-linejoin="miter" d="M 100.70037 387.381243 C 116.179537 392.646868 133.778495 396.099993 151.049329 396.099993 C 168.320163 396.099993 184.945163 393.136452 200.257664 387.876035 C 200.585789 387.709368 200.913914 387.709368 201.23683 387.54791 C 258.757665 366.490618 301.122249 310.88645 301.939957 245.365615 L 301.939957 0.00102623 L 0.00245078 0.00102623 L 0.00245078 245.183323 C 0.814951 311.214575 42.528493 366.818743 100.70037 387.381243 Z M 100.70037 387.381243 " stroke="#000000" stroke-width="8" stroke-opacity="1" stroke-miterlimit="4"/></g></g><g clip-path="url(#d5bf8fbff7)"><g clip-path="url(#d5a72799d8)"><g transform="matrix(1, 0, 0, 1, 388, 482)"><g clip-path="url(#8a8698edfb)"><g clip-path="url(#fa1982a6bf)"><g clip-path="url(#2c728736f4)"><path fill="#000000" d="M 227.324219 227.269531 L 0.863281 227.269531 L 0.863281 0.804688 L 227.324219 0.804688 Z M 227.324219 227.269531 " fill-opacity="1" fill-rule="nonzero"/></g></g></g></g></g></g><g clip-path="url(#4d5adb76e2)"><g clip-path="url(#2cb08ee595)"><path stroke-linecap="butt" transform="matrix(-0.75, 0, 0, -0.75, 615.32518, 709.269711)" fill="none" stroke-linejoin="miter" d="M 0.00128213 301.937766 C 0.00128213 222.416925 32.209618 144.66171 88.433581 88.437747 C 144.662753 32.208576 222.417968 0.000239544 301.938808 0.000239544 L 301.938808 301.937766 Z M 0.00128213 301.937766 " stroke="#000000" stroke-width="8" stroke-opacity="1" stroke-miterlimit="4"/></g></g><g clip-path="url(#bd06bfbda1)"><g clip-path="url(#5b6fc222cb)"><g transform="matrix(1, 0, 0, 1, 8, 917)"><g clip-path="url(#86207c2d88)"><g clip-path="url(#2053e20dc2)"><g clip-path="url(#c5073230d0)"><path fill="#000000" d="M 249.507812 0.410156 L 249.507812 226.875 L 0.0429688 226.875 L 0.0429688 0.410156 Z M 249.507812 0.410156 " fill-opacity="1" fill-rule="nonzero"/></g></g></g></g></g></g><g clip-path="url(#b4147c1090)"><g clip-path="url(#6cd26e2b70)"><path stroke-linecap="butt" transform="matrix(0, 0.75, -0.75, 0, 257.503166, 917.410101)" fill="none" stroke-linejoin="miter" d="M 100.697993 323.90527 C 116.17716 329.170895 133.776118 332.62402 151.05216 332.62402 C 168.322994 332.62402 184.942786 329.665686 200.260495 324.400061 C 200.583411 324.233395 200.911536 324.233395 201.239661 324.071936 C 258.755288 303.014644 301.12508 247.410476 301.93758 183.3011 L 301.93758 -0.000987573 L 0.0000736928 -0.000987573 L 0.0000736928 183.160475 C 0.812574 247.738601 42.526116 303.342769 100.697993 323.90527 Z M 100.697993 323.90527 " stroke="#000000" stroke-width="8" stroke-opacity="1" stroke-miterlimit="4"/></g></g><g clip-path="url(#9442314bc0)"><g transform="matrix(1, 0, 0, 1, 254, 917)"><g clip-path="url(#24f2ce84f6)"><g clip-path="url(#136facfa99)"><path fill="#ff914d" d="M 0.769531 0.40625 L 149.554688 0.40625 L 149.554688 227.074219 L 0.769531 227.074219 Z M 0.769531 0.40625 " fill-opacity="1" fill-rule="nonzero"/></g></g></g></g><g clip-path="url(#ddddf0aa08)"><path stroke-linecap="butt" transform="matrix(0.75, 0, 0, 0.75, 254.768039, 917.404893)" fill="none" stroke-linejoin="miter" d="M 0.00198913 0.00180936 L 198.377006 0.00180936 L 198.377006 301.939335 L 0.00198913 301.939335 Z M 0.00198913 0.00180936 " stroke="#000000" stroke-width="8" stroke-opacity="1" stroke-miterlimit="4"/></g><g clip-path="url(#f638457e21)"><g transform="matrix(1, 0, 0, 1, 336, 919)"><g clip-path="url(#3744ac0635)"><g clip-path="url(#24ef4df169)"><path fill="#ff914d" d="M 0.0507812 0.363281 L 69.996094 0.363281 L 69.996094 223.046875 L 0.0507812 223.046875 Z M 0.0507812 0.363281 " fill-opacity="1" fill-rule="nonzero"/></g></g></g></g><g clip-path="url(#34e4979754)"><g transform="matrix(1, 0, 0, 1, 295, 482)"><g clip-path="url(#a99c994aa7)"><g clip-path="url(#19e42b9dc9)"><path fill="#737373" d="M 0.0664062 0.816406 L 94.679688 0.816406 L 94.679688 227.371094 L 0.0664062 227.371094 Z M 0.0664062 0.816406 " fill-opacity="1" fill-rule="nonzero"/></g></g></g></g><g clip-path="url(#90f3012299)"><path stroke-linecap="butt" transform="matrix(0.75, 0, 0, 0.75, 295.066765, 482.820586)" fill="none" stroke-linejoin="miter" d="M -0.00047798 -0.000365217 L 126.140158 -0.000365217 L 126.140158 301.926744 L -0.00047798 301.926744 Z M -0.00047798 -0.000365217 " stroke="#000000" stroke-width="8" stroke-opacity="1" stroke-miterlimit="4"/></g><g clip-path="url(#a9eb3cccfa)"><g clip-path="url(#f29780b6d7)"><g clip-path="url(#e22b2a336a)"><g transform="matrix(1, 0, 0, 1, 28, 533)"><g clip-path="url(#4773a1b60b)"><g clip-path="url(#d387358af7)"><g clip-path="url(#60e93df192)"><g clip-path="url(#5e380b4a74)"><path fill="#d9d9d9" d="M 562.125 511.160156 L 430.378906 623.097656 L -27.867188 83.75 L 103.878906 -28.1875 Z M 562.125 511.160156 " fill-opacity="1" fill-rule="nonzero"/></g></g></g></g></g></g></g></g><g clip-path="url(#859fc11e63)"><g clip-path="url(#0acbc7e3ee)"><g clip-path="url(#170a35b99e)"><g clip-path="url(#43263a3a1f)"><path stroke-linecap="butt" transform="matrix(-0.571559, 0.485613, -0.485613, -0.571559, 590.119855, 1044.152242)" fill="none" stroke-linejoin="miter" d="M 93.996157 0.00196542 L 136.503048 -0.0026396 C 188.414337 0.000449522 230.500327 42.086539 230.50061 93.993858 L 230.502738 849.898053 C 230.499649 901.809342 188.41356 943.895332 136.50624 943.895615 L 93.99538 943.896848 C 42.084092 943.893759 0.00207054 901.811042 -0.00218181 849.90035 L -0.000340821 93.999527 C -0.00122086 42.084867 42.084868 -0.00112371 93.996157 0.00196542 Z M 93.996157 0.00196542 " stroke="#000000" stroke-width="8" stroke-opacity="1" stroke-miterlimit="4"/></g></g></g></g><g clip-path="url(#9e79b7fa79)"><g clip-path="url(#f247d44b08)"><g transform="matrix(1, 0, 0, 1, 401, 917)"><g clip-path="url(#94ad5c821d)"><g clip-path="url(#09058ca372)"><g clip-path="url(#66e62b76d8)"><path fill="#ff914d" d="M 226.511719 0.40625 L 226.511719 226.867188 L 0.046875 226.867188 L 0.046875 0.40625 Z M 226.511719 0.40625 " fill-opacity="1" fill-rule="nonzero"/></g></g></g></g></g></g><g clip-path="url(#1c940676ba)"><g clip-path="url(#5e9bcc75c1)"><path stroke-linecap="butt" transform="matrix(0, 0.75, -0.75, 0, 627.511083, 917.404893)" fill="none" stroke-linejoin="miter" d="M 0.00180936 301.936679 C 0.00180936 222.421047 32.204937 144.665832 88.434109 88.43666 C 144.66328 32.207489 222.418495 -0.000847266 301.939335 -0.000847266 L 301.939335 301.936679 Z M 0.00180936 301.936679 " stroke="#000000" stroke-width="8" stroke-opacity="1" stroke-miterlimit="4"/></g></g><g clip-path="url(#b91e96675a)"><g clip-path="url(#359d9b90da)"><g transform="matrix(1, 0, 0, 1, 8, 482)"><g clip-path="url(#3ce3fa0c4b)"><g clip-path="url(#a3eed34d27)"><g clip-path="url(#d55c49fd22)"><path fill="#ffffff" d="M 297.113281 0.820312 L 297.113281 227.28125 L -0.121094 227.28125 L -0.121094 0.820312 Z M 297.113281 0.820312 " fill-opacity="1" fill-rule="nonzero"/></g></g></g></g></g></g><g clip-path="url(#1fc0b6ee3a)"><g clip-path="url(#e444befda4)"><path stroke-linecap="butt" transform="matrix(0, 0.75, -0.75, 0, 305.110145, 482.818474)" fill="none" stroke-linejoin="miter" d="M 100.70037 387.381243 C 116.179537 392.646868 133.778495 396.099993 151.049329 396.099993 C 168.320163 396.099993 184.945163 393.136452 200.257664 387.876035 C 200.585789 387.709368 200.913914 387.709368 201.23683 387.54791 C 258.757665 366.490618 301.122249 310.88645 301.939957 245.365615 L 301.939957 0.00102623 L 0.00245078 0.00102623 L 0.00245078 245.183323 C 0.814951 311.214575 42.528493 366.818743 100.70037 387.381243 Z M 100.70037 387.381243 " stroke="#000000" stroke-width="8" stroke-opacity="1" stroke-miterlimit="4"/></g></g><g clip-path="url(#68ec2fcd0d)"><g clip-path="url(#d1a41d0873)"><g transform="matrix(1, 0, 0, 1, 388, 482)"><g clip-path="url(#9cc04716d5)"><g clip-path="url(#10e24b9b72)"><g clip-path="url(#5d4c5254eb)"><path fill="#737373" d="M 227.324219 227.269531 L 0.863281 227.269531 L 0.863281 0.804688 L 227.324219 0.804688 Z M 227.324219 227.269531 " fill-opacity="1" fill-rule="nonzero"/></g></g></g></g></g></g><g clip-path="url(#d4f4dff88e)"><g clip-path="url(#f2ddfb21d1)"><path stroke-linecap="butt" transform="matrix(-0.75, 0, 0, -0.75, 615.32518, 709.269711)" fill="none" stroke-linejoin="miter" d="M 0.00128213 301.937766 C 0.00128213 222.416925 32.209618 144.66171 88.433581 88.437747 C 144.662753 32.208576 222.417968 0.000239544 301.938808 0.000239544 L 301.938808 301.937766 Z M 0.00128213 301.937766 " stroke="#000000" stroke-width="8" stroke-opacity="1" stroke-miterlimit="4"/></g></g><g clip-path="url(#92efa52058)"><g clip-path="url(#12c6b2e720)"><g transform="matrix(1, 0, 0, 1, 8, 917)"><g clip-path="url(#d6bd589e91)"><g clip-path="url(#136a3c81f7)"><g clip-path="url(#0188aa1edd)"><path fill="#737373" d="M 247.613281 0.40625 L 247.613281 226.871094 L -0.0820312 226.871094 L -0.0820312 0.40625 Z M 247.613281 0.40625 " fill-opacity="1" fill-rule="nonzero"/></g></g></g></g></g></g><g clip-path="url(#f107ec657d)"><g clip-path="url(#361b156289)"><path stroke-linecap="butt" transform="matrix(0, 0.75, -0.75, 0, 255.609446, 917.407749)" fill="none" stroke-linejoin="miter" d="M 100.701129 321.38031 C 116.180296 326.645935 133.779254 330.09906 151.050088 330.09906 C 168.320922 330.09906 184.940714 327.140727 200.258422 321.875101 C 200.586547 321.708435 200.909464 321.708435 201.237589 321.546976 C 258.758424 300.489684 301.123008 244.885516 301.935508 180.828223 L 301.935508 0.0000943113 L -0.00199864 0.0000943113 L -0.00199864 180.698015 C 0.81571 245.213641 42.529252 300.817809 100.701129 321.38031 Z M 100.701129 321.38031 " stroke="#000000" stroke-width="8" stroke-opacity="1" stroke-miterlimit="4"/></g></g><g clip-path="url(#6988d1f7cf)"><g transform="matrix(1, 0, 0, 1, 251, 917)"><g clip-path="url(#6259e03e34)"><g clip-path="url(#5b2c5a976c)"><path fill="#ff914d" d="M 0.125 0.40625 L 152.554688 0.40625 L 152.554688 226.667969 L 0.125 226.667969 Z M 0.125 0.40625 " fill-opacity="1" fill-rule="nonzero"/></g></g></g></g><g clip-path="url(#14c3013c6a)"><path stroke-linecap="butt" transform="matrix(0.75, 0, 0, 0.75, 251.126906, 917.404893)" fill="none" stroke-linejoin="miter" d="M -0.00254149 0.00180936 L 203.231851 0.00180936 L 203.231851 301.939335 L -0.00254149 301.939335 Z M -0.00254149 0.00180936 " stroke="#000000" stroke-width="8" stroke-opacity="1" stroke-miterlimit="4"/></g><g clip-path="url(#06eb7801e8)"><g transform="matrix(1, 0, 0, 1, 336, 919)"><g clip-path="url(#856fd3e065)"><g clip-path="url(#b6dae82ac8)"><path fill="#ff914d" d="M 0.0507812 0.363281 L 69.996094 0.363281 L 69.996094 223.046875 L 0.0507812 223.046875 Z M 0.0507812 0.363281 " fill-opacity="1" fill-rule="nonzero"/></g></g></g></g><g clip-path="url(#6a188dab52)"><g transform="matrix(1, 0, 0, 1, 229, 918)"><g clip-path="url(#ce09dda7d6)"><g clip-path="url(#01b4871e80)"><path fill="#737373" d="M 0.421875 0.878906 L 26.621094 0.878906 L 26.621094 224.078125 L 0.421875 224.078125 Z M 0.421875 0.878906 " fill-opacity="1" fill-rule="nonzero"/></g></g></g></g><g clip-path="url(#c022cc0ee4)"><g transform="matrix(1, 0, 0, 1, 302, 484)"><g clip-path="url(#057adfa0c5)"><g clip-path="url(#ad18e20b3b)"><path fill="#737373" d="M 0.957031 0.453125 L 46.734375 0.453125 L 46.734375 223.628906 L 0.957031 223.628906 Z M 0.957031 0.453125 " fill-opacity="1" fill-rule="nonzero"/></g></g></g></g><g clip-path="url(#93ad30a1f6)"><g clip-path="url(#b912fab966)"><g transform="matrix(1, 0, 0, 1, 348, 484)"><g clip-path="url(#7a0e14c4aa)"><g clip-path="url(#dc58d0aa18)"><g clip-path="url(#91042038ed)"><path fill="#737373" d="M 0.734375 0.453125 L 70.683594 0.453125 L 70.683594 223.683594 L 0.734375 223.683594 Z M 0.734375 0.453125 " fill-opacity="1" fill-rule="nonzero"/></g></g></g></g></g></g></svg>