<svg xmlns="http://www.w3.org/2000/svg" xmlns:xlink="http://www.w3.org/1999/xlink" width="2000" zoomAndPan="magnify" viewBox="0 0 1500 1499.999933" height="2000" preserveAspectRatio="xMidYMid meet" version="1.0"><defs><g/><clipPath id="d41db9e3af"><path d="M 0.238281 0.078125 L 1068 0.078125 L 1068 243 L 0.238281 243 Z M 0.238281 0.078125 " clip-rule="nonzero"/></clipPath><clipPath id="fc60a6e1fc"><rect x="0" width="1068" y="0" height="243"/></clipPath><clipPath id="27b2885775"><path d="M 215 239 L 1055 239 L 1055 524.960938 L 215 524.960938 Z M 215 239 " clip-rule="nonzero"/></clipPath><clipPath id="859e3a2406"><rect x="0" width="840" y="0" height="286"/></clipPath><clipPath id="26737a8809"><rect x="0" width="1068" y="0" height="525"/></clipPath><clipPath id="1121347b73"><path d="M 295.066406 15.816406 L 389.679688 15.816406 L 389.679688 242.28125 L 295.066406 242.28125 Z M 295.066406 15.816406 " clip-rule="nonzero"/></clipPath><clipPath id="44e3c15128"><path d="M 0.0664062 0.816406 L 94.679688 0.816406 L 94.679688 227.28125 L 0.0664062 227.28125 Z M 0.0664062 0.816406 " clip-rule="nonzero"/></clipPath><clipPath id="3c410edb2a"><rect x="0" width="95" y="0" height="228"/></clipPath><clipPath id="f7e6313057"><path d="M 295.066406 15.820312 L 389.675781 15.820312 L 389.675781 242.140625 L 295.066406 242.140625 Z M 295.066406 15.820312 " clip-rule="nonzero"/></clipPath><clipPath id="f1d310aa7e"><path d="M 28 66 L 562 66 L 562 661 L 28 661 Z M 28 66 " clip-rule="nonzero"/></clipPath><clipPath id="c9d8a5d3d7"><path d="M 590.128906 577.160156 L 458.378906 689.097656 L -0.304688 149.238281 L 131.445312 37.300781 Z M 590.128906 577.160156 " clip-rule="nonzero"/></clipPath><clipPath id="f8be85cc4c"><path d="M 536.402344 622.808594 L 512.105469 643.453125 C 482.433594 668.664062 437.941406 665.046875 412.730469 635.371094 L 45.644531 203.3125 C 20.433594 173.640625 24.050781 129.152344 53.722656 103.941406 L 78.019531 83.296875 C 107.691406 58.085938 152.179688 61.703125 177.390625 91.375 L 544.480469 523.433594 C 569.691406 553.105469 566.074219 597.597656 536.402344 622.808594 Z M 536.402344 622.808594 " clip-rule="nonzero"/></clipPath><clipPath id="951b819274"><path d="M 0 0 L 534 0 L 534 595 L 0 595 Z M 0 0 " clip-rule="nonzero"/></clipPath><clipPath id="160d37ba55"><path d="M 562.128906 511.160156 L 430.378906 623.097656 L -28.304688 83.238281 L 103.445312 -28.699219 Z M 562.128906 511.160156 " clip-rule="nonzero"/></clipPath><clipPath id="a493d719a3"><path d="M 508.402344 556.808594 L 484.105469 577.453125 C 454.433594 602.664062 409.941406 599.046875 384.730469 569.371094 L 17.644531 137.3125 C -7.566406 107.640625 -3.949219 63.152344 25.722656 37.941406 L 50.019531 17.296875 C 79.691406 -7.914062 124.179688 -4.296875 149.390625 25.375 L 516.480469 457.433594 C 541.691406 487.105469 538.074219 531.597656 508.402344 556.808594 Z M 508.402344 556.808594 " clip-rule="nonzero"/></clipPath><clipPath id="c86eb0392d"><rect x="0" width="534" y="0" height="595"/></clipPath><clipPath id="7ad5ac9d88"><path d="M 28 66 L 562 66 L 562 661 L 28 661 Z M 28 66 " clip-rule="nonzero"/></clipPath><clipPath id="c3f0aad3f5"><path d="M 590.128906 577.160156 L 458.425781 689.0625 L 0.109375 149.628906 L 131.8125 37.730469 Z M 590.128906 577.160156 " clip-rule="nonzero"/></clipPath><clipPath id="06049c37bf"><path d="M 590.125 577.15625 L 457.351562 689.960938 L -3.683594 147.332031 L 129.089844 34.523438 Z M 590.125 577.15625 " clip-rule="nonzero"/></clipPath><clipPath id="956a26966a"><path d="M 536.398438 622.800781 L 512.101562 643.445312 C 482.433594 668.65625 437.941406 665.039062 412.730469 635.367188 L 45.652344 203.316406 C 20.441406 173.648438 24.058594 129.15625 53.730469 103.945312 L 78.027344 83.304688 C 107.699219 58.09375 152.1875 61.710938 177.398438 91.382812 L 544.476562 523.429688 C 569.6875 553.101562 566.070312 597.59375 536.398438 622.800781 Z M 536.398438 622.800781 " clip-rule="nonzero"/></clipPath><clipPath id="521d332173"><path d="M 401.058594 450.40625 L 628 450.40625 L 628 676.867188 L 401.058594 676.867188 Z M 401.058594 450.40625 " clip-rule="nonzero"/></clipPath><clipPath id="0f005ea1e4"><path d="M 401.058594 450.40625 C 460.699219 450.40625 519.019531 474.5625 561.191406 516.734375 C 603.363281 558.90625 627.519531 617.226562 627.519531 676.867188 L 401.058594 676.867188 Z M 401.058594 450.40625 " clip-rule="nonzero"/></clipPath><clipPath id="50645606ae"><path d="M 0.0585938 0.40625 L 226.601562 0.40625 L 226.601562 226.867188 L 0.0585938 226.867188 Z M 0.0585938 0.40625 " clip-rule="nonzero"/></clipPath><clipPath id="a826dbccef"><path d="M 0.0585938 0.40625 C 59.699219 0.40625 118.019531 24.5625 160.191406 66.734375 C 202.363281 108.90625 226.519531 167.226562 226.519531 226.867188 L 0.0585938 226.867188 Z M 0.0585938 0.40625 " clip-rule="nonzero"/></clipPath><clipPath id="58e4348863"><rect x="0" width="227" y="0" height="227"/></clipPath><clipPath id="f914311cf8"><path d="M 401.195312 450.40625 L 627.519531 450.40625 L 627.519531 676.730469 L 401.195312 676.730469 Z M 401.195312 450.40625 " clip-rule="nonzero"/></clipPath><clipPath id="1f23505027"><path d="M 401.058594 450.40625 C 460.699219 450.40625 519.019531 474.5625 561.191406 516.734375 C 603.363281 558.90625 627.519531 617.226562 627.519531 676.867188 L 401.058594 676.867188 Z M 401.058594 450.40625 " clip-rule="nonzero"/></clipPath><clipPath id="c12290381e"><path d="M 8 15.816406 L 305.121094 15.816406 L 305.121094 242.28125 L 8 242.28125 Z M 8 15.816406 " clip-rule="nonzero"/></clipPath><clipPath id="3751d5aeda"><path d="M 14.570312 91.34375 C 10.625 102.957031 8.03125 116.15625 8.03125 129.109375 C 8.03125 142.0625 10.253906 154.53125 14.203125 166.019531 C 14.324219 166.261719 14.324219 166.507812 14.449219 166.75 C 30.242188 209.894531 71.945312 241.667969 121.089844 242.28125 L 305.121094 242.28125 L 305.121094 15.816406 L 121.226562 15.816406 C 71.699219 16.425781 29.996094 47.714844 14.570312 91.34375 Z M 14.570312 91.34375 " clip-rule="nonzero"/></clipPath><clipPath id="23e7cc0a33"><path d="M 0 0.816406 L 297.121094 0.816406 L 297.121094 227.28125 L 0 227.28125 Z M 0 0.816406 " clip-rule="nonzero"/></clipPath><clipPath id="5c74159dba"><path d="M 6.570312 76.34375 C 2.625 87.957031 0.03125 101.15625 0.03125 114.109375 C 0.03125 127.0625 2.253906 139.53125 6.203125 151.019531 C 6.324219 151.261719 6.324219 151.507812 6.449219 151.75 C 22.242188 194.894531 63.945312 226.667969 113.089844 227.28125 L 297.121094 227.28125 L 297.121094 0.816406 L 113.226562 0.816406 C 63.699219 1.425781 21.996094 32.714844 6.570312 76.34375 Z M 6.570312 76.34375 " clip-rule="nonzero"/></clipPath><clipPath id="3bae7a283d"><rect x="0" width="298" y="0" height="228"/></clipPath><clipPath id="a5895f0764"><path d="M 8 15.816406 L 305.121094 15.816406 L 305.121094 242.140625 L 8 242.140625 Z M 8 15.816406 " clip-rule="nonzero"/></clipPath><clipPath id="9b2bac7594"><path d="M 14.574219 91.34375 C 10.625 102.953125 8.035156 116.152344 8.035156 129.109375 C 8.035156 142.0625 10.253906 154.53125 14.203125 166.015625 C 14.328125 166.261719 14.328125 166.507812 14.449219 166.75 C 30.242188 209.890625 71.945312 241.667969 121.089844 242.277344 L 305.121094 242.277344 L 305.121094 15.816406 L 121.226562 15.816406 C 71.699219 16.425781 29.996094 47.714844 14.574219 91.34375 Z M 14.574219 91.34375 " clip-rule="nonzero"/></clipPath><clipPath id="b7d65a022f"><path d="M 388.871094 15.816406 L 615.335938 15.816406 L 615.335938 243 L 388.871094 243 Z M 388.871094 15.816406 " clip-rule="nonzero"/></clipPath><clipPath id="66318fcc51"><path d="M 615.335938 15.816406 C 615.335938 75.457031 591.179688 133.777344 549.003906 175.949219 C 506.832031 218.125 448.511719 242.28125 388.871094 242.28125 L 388.871094 15.816406 Z M 615.335938 15.816406 " clip-rule="nonzero"/></clipPath><clipPath id="ef223cc515"><path d="M 0.871094 0.816406 L 227.335938 0.816406 L 227.335938 227.441406 L 0.871094 227.441406 Z M 0.871094 0.816406 " clip-rule="nonzero"/></clipPath><clipPath id="5c8940b10b"><path d="M 227.335938 0.816406 C 227.335938 60.457031 203.179688 118.777344 161.003906 160.949219 C 118.832031 203.125 60.511719 227.28125 0.871094 227.28125 L 0.871094 0.816406 Z M 227.335938 0.816406 " clip-rule="nonzero"/></clipPath><clipPath id="ab007dd4e4"><rect x="0" width="228" y="0" height="228"/></clipPath><clipPath id="05dc7b72e7"><path d="M 389.011719 15.953125 L 615.335938 15.953125 L 615.335938 242.28125 L 389.011719 242.28125 Z M 389.011719 15.953125 " clip-rule="nonzero"/></clipPath><clipPath id="0493d3f1eb"><path d="M 615.335938 15.816406 C 615.335938 75.457031 591.179688 133.777344 549.003906 175.949219 C 506.832031 218.125 448.515625 242.28125 388.871094 242.28125 L 388.871094 15.816406 Z M 615.335938 15.816406 " clip-rule="nonzero"/></clipPath><clipPath id="acdc05adff"><path d="M 8 450.40625 L 257.511719 450.40625 L 257.511719 676.867188 L 8 676.867188 Z M 8 450.40625 " clip-rule="nonzero"/></clipPath><clipPath id="bcabcfded3"><path d="M 14.570312 525.933594 C 10.625 537.542969 8.03125 550.742188 8.03125 563.699219 C 8.03125 576.652344 10.253906 589.117188 14.203125 600.605469 C 14.324219 600.851562 14.324219 601.09375 14.449219 601.339844 C 30.242188 644.480469 71.945312 676.257812 120.03125 676.867188 L 257.511719 676.867188 L 257.511719 450.40625 L 120.132812 450.40625 C 71.699219 451.015625 29.996094 482.300781 14.570312 525.933594 Z M 14.570312 525.933594 " clip-rule="nonzero"/></clipPath><clipPath id="a6927bad3d"><path d="M 0 0.40625 L 249.511719 0.40625 L 249.511719 226.867188 L 0 226.867188 Z M 0 0.40625 " clip-rule="nonzero"/></clipPath><clipPath id="9c641a33a3"><path d="M 6.570312 75.933594 C 2.625 87.542969 0.03125 100.742188 0.03125 113.699219 C 0.03125 126.652344 2.253906 139.117188 6.203125 150.605469 C 6.324219 150.851562 6.324219 151.09375 6.449219 151.339844 C 22.242188 194.480469 63.945312 226.257812 112.03125 226.867188 L 249.511719 226.867188 L 249.511719 0.40625 L 112.132812 0.40625 C 63.699219 1.015625 21.996094 32.300781 6.570312 75.933594 Z M 6.570312 75.933594 " clip-rule="nonzero"/></clipPath><clipPath id="40d005a753"><rect x="0" width="250" y="0" height="227"/></clipPath><clipPath id="eb93e86a2f"><path d="M 8.09375 450.40625 L 257.511719 450.40625 L 257.511719 676.730469 L 8.09375 676.730469 Z M 8.09375 450.40625 " clip-rule="nonzero"/></clipPath><clipPath id="2b053a38c7"><path d="M 14.574219 525.933594 C 10.625 537.542969 8.035156 550.742188 8.035156 563.695312 C 8.035156 576.652344 10.253906 589.117188 14.203125 600.605469 C 14.328125 600.851562 14.328125 601.09375 14.449219 601.339844 C 30.242188 644.480469 71.945312 676.257812 120.035156 676.867188 L 257.511719 676.867188 L 257.511719 450.40625 L 120.136719 450.40625 C 71.699219 451.015625 29.996094 482.304688 14.574219 525.933594 Z M 14.574219 525.933594 " clip-rule="nonzero"/></clipPath><clipPath id="9d944b38fb"><path d="M 254.769531 450.40625 L 403.554688 450.40625 L 403.554688 676.867188 L 254.769531 676.867188 Z M 254.769531 450.40625 " clip-rule="nonzero"/></clipPath><clipPath id="aae25099ff"><path d="M 0.769531 0.40625 L 149.554688 0.40625 L 149.554688 226.867188 L 0.769531 226.867188 Z M 0.769531 0.40625 " clip-rule="nonzero"/></clipPath><clipPath id="2cc4eed867"><rect x="0" width="150" y="0" height="227"/></clipPath><clipPath id="290cc17e3f"><path d="M 254.769531 450.40625 L 403.550781 450.40625 L 403.550781 676.730469 L 254.769531 676.730469 Z M 254.769531 450.40625 " clip-rule="nonzero"/></clipPath><clipPath id="937c1591e5"><path d="M 336.050781 452.363281 L 405.996094 452.363281 L 405.996094 675.074219 L 336.050781 675.074219 Z M 336.050781 452.363281 " clip-rule="nonzero"/></clipPath><clipPath id="07b60f184d"><path d="M 0.0507812 0.363281 L 69.996094 0.363281 L 69.996094 223.074219 L 0.0507812 223.074219 Z M 0.0507812 0.363281 " clip-rule="nonzero"/></clipPath><clipPath id="a02c3c958f"><rect x="0" width="70" y="0" height="224"/></clipPath><clipPath id="9975d6330a"><rect x="0" width="644" y="0" height="712"/></clipPath></defs><g transform="matrix(1, 0, 0, 1, 432, 664)"><g clip-path="url(#26737a8809)"><g clip-path="url(#d41db9e3af)"><g transform="matrix(1, 0, 0, 1, 0, 0.000000000000113687)"><g clip-path="url(#fc60a6e1fc)"><g fill="#000000" fill-opacity="1"><g transform="translate(0.344908, 201.695476)"><g><path d="M 169.015625 -160.96875 L 169.015625 -128.765625 L 40.234375 -128.765625 L 40.234375 -96.578125 L 136.8125 -96.578125 C 142.71875 -96.578125 148.117188 -95.132812 153.015625 -92.25 C 157.910156 -89.363281 161.800781 -85.472656 164.6875 -80.578125 C 167.570312 -75.679688 169.015625 -70.285156 169.015625 -64.390625 L 169.015625 -32.1875 C 169.015625 -26.289062 167.570312 -20.894531 164.6875 -16 C 161.800781 -11.101562 157.910156 -7.210938 153.015625 -4.328125 C 148.117188 -1.441406 142.71875 0 136.8125 0 L 8.046875 0 L 8.046875 -32.1875 L 136.8125 -32.1875 L 136.8125 -64.390625 L 40.234375 -64.390625 C 34.335938 -64.390625 28.941406 -65.828125 24.046875 -68.703125 C 19.148438 -71.585938 15.257812 -75.476562 12.375 -80.375 C 9.488281 -85.269531 8.046875 -90.671875 8.046875 -96.578125 L 8.046875 -128.765625 C 8.046875 -134.671875 9.488281 -140.070312 12.375 -144.96875 C 15.257812 -149.863281 19.148438 -153.753906 24.046875 -156.640625 C 28.941406 -159.523438 34.335938 -160.96875 40.234375 -160.96875 Z M 169.015625 -160.96875 "/></g></g></g><g fill="#000000" fill-opacity="1"><g transform="translate(177.383685, 201.695476)"><g><path d="M 169.015625 -160.96875 L 169.015625 -128.765625 L 104.625 -128.765625 L 104.625 0 L 72.4375 0 L 72.4375 -128.765625 L 8.046875 -128.765625 L 8.046875 -160.96875 Z M 169.015625 -160.96875 "/></g></g></g><g fill="#000000" fill-opacity="1"><g transform="translate(354.422462, 201.695476)"><g><path d="M 136.8125 0 L 40.234375 0 C 34.335938 0 28.941406 -1.441406 24.046875 -4.328125 C 19.148438 -7.210938 15.257812 -11.101562 12.375 -16 C 9.488281 -20.894531 8.046875 -26.289062 8.046875 -32.1875 L 8.046875 -160.96875 L 40.234375 -160.96875 L 40.234375 -32.1875 L 136.8125 -32.1875 L 136.8125 -160.96875 L 169.015625 -160.96875 L 169.015625 -32.1875 C 169.015625 -26.289062 167.570312 -20.894531 164.6875 -16 C 161.800781 -11.101562 157.910156 -7.210938 153.015625 -4.328125 C 148.117188 -1.441406 142.71875 0 136.8125 0 Z M 136.8125 0 "/></g></g></g><g fill="#000000" fill-opacity="1"><g transform="translate(531.461239, 201.695476)"><g><path d="M 136.8125 0 L 8.046875 0 L 8.046875 -160.96875 L 136.8125 -160.96875 C 142.71875 -160.96875 148.117188 -159.523438 153.015625 -156.640625 C 157.910156 -153.753906 161.800781 -149.863281 164.6875 -144.96875 C 167.570312 -140.070312 169.015625 -134.671875 169.015625 -128.765625 L 169.015625 -32.1875 C 169.015625 -26.289062 167.570312 -20.894531 164.6875 -16 C 161.800781 -11.101562 157.910156 -7.210938 153.015625 -4.328125 C 148.117188 -1.441406 142.71875 0 136.8125 0 Z M 40.234375 -128.765625 L 40.234375 -32.1875 L 136.8125 -32.1875 L 136.8125 -128.765625 Z M 40.234375 -128.765625 "/></g></g></g><g fill="#000000" fill-opacity="1"><g transform="translate(708.500016, 201.695476)"><g><path d="M 169.015625 0 L 8.046875 0 L 8.046875 -32.1875 L 72.4375 -32.1875 L 72.4375 -128.765625 L 8.046875 -128.765625 L 8.046875 -160.96875 L 169.015625 -160.96875 L 169.015625 -128.765625 L 104.625 -128.765625 L 104.625 -32.1875 L 169.015625 -32.1875 Z M 169.015625 0 "/></g></g></g><g fill="#000000" fill-opacity="1"><g transform="translate(885.538793, 201.695476)"><g><path d="M 136.8125 0 L 40.234375 0 C 34.335938 0 28.941406 -1.441406 24.046875 -4.328125 C 19.148438 -7.210938 15.257812 -11.101562 12.375 -16 C 9.488281 -20.894531 8.046875 -26.289062 8.046875 -32.1875 L 8.046875 -128.765625 C 8.046875 -134.671875 9.488281 -140.070312 12.375 -144.96875 C 15.257812 -149.863281 19.148438 -153.753906 24.046875 -156.640625 C 28.941406 -159.523438 34.335938 -160.96875 40.234375 -160.96875 L 136.8125 -160.96875 C 142.71875 -160.96875 148.117188 -159.523438 153.015625 -156.640625 C 157.910156 -153.753906 161.800781 -149.863281 164.6875 -144.96875 C 167.570312 -140.070312 169.015625 -134.671875 169.015625 -128.765625 L 169.015625 -32.1875 C 169.015625 -26.425781 167.570312 -21.097656 164.6875 -16.203125 C 161.800781 -11.304688 157.941406 -7.378906 153.109375 -4.421875 C 148.285156 -1.472656 142.851562 0 136.8125 0 Z M 40.234375 -128.765625 L 40.234375 -32.1875 L 136.8125 -32.1875 L 136.8125 -128.765625 Z M 40.234375 -128.765625 "/></g></g></g><g fill="#000000" fill-opacity="1"><g transform="translate(1062.585262, 201.695476)"><g/></g></g></g></g></g><g clip-path="url(#27b2885775)"><g transform="matrix(1, 0, 0, 1, 215, 239)"><g clip-path="url(#859e3a2406)"><g fill="#000000" fill-opacity="1"><g transform="translate(0.917888, 238.223429)"><g><path d="M 199.84375 -190.328125 L 199.84375 -152.265625 L 47.578125 -152.265625 L 47.578125 -114.1875 L 199.84375 -114.1875 L 199.84375 -76.125 L 47.578125 -76.125 L 47.578125 0 L 9.515625 0 L 9.515625 -152.265625 C 9.515625 -159.242188 11.21875 -165.625 14.625 -171.40625 C 18.039062 -177.195312 22.640625 -181.796875 28.421875 -185.203125 C 34.210938 -188.617188 40.597656 -190.328125 47.578125 -190.328125 Z M 199.84375 -190.328125 "/></g></g></g><g fill="#000000" fill-opacity="1"><g transform="translate(210.273356, 238.223429)"><g><path d="M 161.78125 0 L 47.578125 0 C 40.597656 0 34.210938 -1.703125 28.421875 -5.109375 C 22.640625 -8.523438 18.039062 -13.125 14.625 -18.90625 C 11.21875 -24.695312 9.515625 -31.082031 9.515625 -38.0625 L 9.515625 -152.265625 C 9.515625 -159.242188 11.21875 -165.625 14.625 -171.40625 C 18.039062 -177.195312 22.640625 -181.796875 28.421875 -185.203125 C 34.210938 -188.617188 40.597656 -190.328125 47.578125 -190.328125 L 161.78125 -190.328125 C 168.757812 -190.328125 175.140625 -188.617188 180.921875 -185.203125 C 186.710938 -181.796875 191.3125 -177.195312 194.71875 -171.40625 C 198.132812 -165.625 199.84375 -159.242188 199.84375 -152.265625 L 199.84375 -38.0625 C 199.84375 -31.238281 198.132812 -24.929688 194.71875 -19.140625 C 191.3125 -13.359375 186.753906 -8.722656 181.046875 -5.234375 C 175.335938 -1.742188 168.914062 0 161.78125 0 Z M 47.578125 -152.265625 L 47.578125 -38.0625 L 161.78125 -38.0625 L 161.78125 -152.265625 Z M 47.578125 -152.265625 "/></g></g></g><g fill="#000000" fill-opacity="1"><g transform="translate(419.628825, 238.223429)"><g><path d="M 199.84375 -152.265625 L 199.84375 -114.1875 C 199.84375 -107.21875 198.132812 -100.835938 194.71875 -95.046875 C 191.3125 -89.253906 186.710938 -84.648438 180.921875 -81.234375 C 175.140625 -77.828125 168.757812 -76.125 161.78125 -76.125 L 123.71875 -76.125 L 161.78125 -38.0625 L 199.84375 -38.0625 L 199.84375 0 L 154.15625 0 C 148.769531 0 144.171875 -1.898438 140.359375 -5.703125 L 69.9375 -76.125 L 47.578125 -76.125 L 47.578125 0 L 9.515625 0 L 9.515625 -190.328125 L 161.78125 -190.328125 C 168.757812 -190.328125 175.140625 -188.617188 180.921875 -185.203125 C 186.710938 -181.796875 191.3125 -177.195312 194.71875 -171.40625 C 198.132812 -165.625 199.84375 -159.242188 199.84375 -152.265625 Z M 161.78125 -152.265625 L 47.578125 -152.265625 L 47.578125 -114.1875 L 161.78125 -114.1875 Z M 161.78125 -152.265625 "/></g></g></g><g fill="#000000" fill-opacity="1"><g transform="translate(628.984293, 238.223429)"><g><path d="M 47.578125 -190.328125 L 161.78125 -190.328125 C 168.757812 -190.328125 175.140625 -188.617188 180.921875 -185.203125 C 186.710938 -181.796875 191.3125 -177.195312 194.71875 -171.40625 C 198.132812 -165.625 199.84375 -159.242188 199.84375 -152.265625 L 199.84375 0 L 161.78125 0 L 161.78125 -152.265625 L 123.71875 -152.265625 L 123.71875 0 L 85.640625 0 L 85.640625 -152.265625 L 47.578125 -152.265625 L 47.578125 0 L 9.515625 0 L 9.515625 -152.265625 C 9.515625 -159.242188 11.21875 -165.625 14.625 -171.40625 C 18.039062 -177.195312 22.640625 -181.796875 28.421875 -185.203125 C 34.210938 -188.617188 40.597656 -190.328125 47.578125 -190.328125 Z M 47.578125 -190.328125 "/></g></g></g></g></g></g></g></g><g transform="matrix(1, 0, 0, 1, 0, 467)"><g clip-path="url(#9975d6330a)"><g clip-path="url(#1121347b73)"><g transform="matrix(1, 0, 0, 1, 295, 15)"><g clip-path="url(#3c410edb2a)"><g clip-path="url(#44e3c15128)"><path fill="#000000" d="M 0.0664062 0.816406 L 94.679688 0.816406 L 94.679688 227.371094 L 0.0664062 227.371094 Z M 0.0664062 0.816406 " fill-opacity="1" fill-rule="nonzero"/></g></g></g></g><g clip-path="url(#f7e6313057)"><path stroke-linecap="butt" transform="matrix(0.384906, 0, 0, 0.384906, 295.066796, 15.821696)" fill="none" stroke-linejoin="miter" d="M -0.00101242 -0.00359483 L 245.79769 -0.00359483 L 245.79769 588.330113 L -0.00101242 588.330113 Z M -0.00101242 -0.00359483 " stroke="#000000" stroke-width="15.588225" stroke-opacity="1" stroke-miterlimit="4"/></g><g clip-path="url(#f1d310aa7e)"><g clip-path="url(#c9d8a5d3d7)"><g clip-path="url(#f8be85cc4c)"><g transform="matrix(1, 0, 0, 1, 28, 66)"><g clip-path="url(#c86eb0392d)"><g clip-path="url(#951b819274)"><g clip-path="url(#160d37ba55)"><g clip-path="url(#a493d719a3)"><path fill="#d9d9d9" d="M 562.128906 511.160156 L 430.378906 623.097656 L -27.867188 83.75 L 103.882812 -28.1875 Z M 562.128906 511.160156 " fill-opacity="1" fill-rule="nonzero"/></g></g></g></g></g></g></g></g><g clip-path="url(#7ad5ac9d88)"><g clip-path="url(#c3f0aad3f5)"><g clip-path="url(#06049c37bf)"><g clip-path="url(#956a26966a)"><path stroke-linecap="butt" transform="matrix(-0.293329, 0.24922, -0.24922, -0.293329, 590.124055, 577.155986)" fill="none" stroke-linejoin="miter" d="M 183.154987 0.00400241 L 265.988584 0.00160037 C 367.138015 -0.00668554 449.14374 81.999233 449.145455 183.156397 L 449.136461 1656.072269 C 449.144747 1757.2217 367.138829 1839.227426 265.981664 1839.22914 L 183.154639 1839.223808 C 81.997474 1839.225523 -0.000517449 1757.226176 -0.00223232 1656.069012 L 0.000190599 183.160873 C -0.00152427 82.003709 82.004394 -0.00201674 183.154987 0.00400241 Z M 183.154987 0.00400241 " stroke="#000000" stroke-width="15.588225" stroke-opacity="1" stroke-miterlimit="4"/></g></g></g></g><g clip-path="url(#521d332173)"><g clip-path="url(#0f005ea1e4)"><g transform="matrix(1, 0, 0, 1, 401, 450)"><g clip-path="url(#58e4348863)"><g clip-path="url(#50645606ae)"><g clip-path="url(#a826dbccef)"><path fill="#ff914d" d="M 226.519531 0.40625 L 226.519531 226.867188 L 0.0585938 226.867188 L 0.0585938 0.40625 Z M 226.519531 0.40625 " fill-opacity="1" fill-rule="nonzero"/></g></g></g></g></g></g><g clip-path="url(#f914311cf8)"><g clip-path="url(#1f23505027)"><path stroke-linecap="butt" transform="matrix(0, 0.384906, -0.384906, 0, 627.520995, 450.404941)" fill="none" stroke-linejoin="miter" d="M 0.00340088 588.357809 C 0.00340088 433.409229 62.762244 281.890871 172.326356 172.326759 C 281.890468 62.762647 433.408826 0.00380366 588.357406 0.00380366 L 588.357406 588.357809 Z M 0.00340088 588.357809 " stroke="#000000" stroke-width="15.588225" stroke-opacity="1" stroke-miterlimit="4"/></g></g><g clip-path="url(#c12290381e)"><g clip-path="url(#3751d5aeda)"><g transform="matrix(1, 0, 0, 1, 8, 15)"><g clip-path="url(#3bae7a283d)"><g clip-path="url(#23e7cc0a33)"><g clip-path="url(#5c74159dba)"><path fill="#ffffff" d="M 297.121094 0.816406 L 297.121094 227.28125 L -0.113281 227.28125 L -0.113281 0.816406 Z M 297.121094 0.816406 " fill-opacity="1" fill-rule="nonzero"/></g></g></g></g></g></g><g clip-path="url(#a5895f0764)"><g clip-path="url(#9b2bac7594)"><path stroke-linecap="butt" transform="matrix(0, 0.384906, -0.384906, 0, 305.121307, 15.816423)" fill="none" stroke-linejoin="miter" d="M 196.222842 754.852284 C 226.384436 765.112503 260.676503 771.841015 294.339359 771.841015 C 327.992065 771.841015 360.386348 766.076618 390.223187 755.816399 C 390.862548 755.491645 391.501908 755.491645 392.131121 755.177038 C 504.21209 714.146311 586.770827 605.80002 588.354006 478.120676 L 588.354006 0.000554211 L -0.0000432402 0.000554211 L -0.0000432402 477.765476 C 1.583136 606.439381 82.873299 714.785671 196.222842 754.852284 Z M 196.222842 754.852284 " stroke="#000000" stroke-width="15.588225" stroke-opacity="1" stroke-miterlimit="4"/></g></g><g clip-path="url(#b7d65a022f)"><g clip-path="url(#66318fcc51)"><g transform="matrix(1, 0, 0, 1, 388, 15)"><g clip-path="url(#ab007dd4e4)"><g clip-path="url(#ef223cc515)"><g clip-path="url(#5c8940b10b)"><path fill="#000000" d="M 227.335938 227.28125 L 0.871094 227.28125 L 0.871094 0.816406 L 227.335938 0.816406 Z M 227.335938 227.28125 " fill-opacity="1" fill-rule="nonzero"/></g></g></g></g></g></g><g clip-path="url(#05dc7b72e7)"><g clip-path="url(#0493d3f1eb)"><path stroke-linecap="butt" transform="matrix(-0.384906, 0, 0, -0.384906, 615.335068, 242.279606)" fill="none" stroke-linejoin="miter" d="M -0.00225809 588.359883 C -0.00225809 433.411303 62.756585 281.892945 172.330846 172.328833 C 281.894958 62.754572 433.413316 -0.00427089 588.361896 -0.00427089 L 588.361896 588.359883 Z M -0.00225809 588.359883 " stroke="#000000" stroke-width="15.588225" stroke-opacity="1" stroke-miterlimit="4"/></g></g><g clip-path="url(#acdc05adff)"><g clip-path="url(#bcabcfded3)"><g transform="matrix(1, 0, 0, 1, 8, 450)"><g clip-path="url(#40d005a753)"><g clip-path="url(#a6927bad3d)"><g clip-path="url(#9c641a33a3)"><path fill="#000000" d="M 249.511719 0.40625 L 249.511719 226.867188 L 0.0507812 226.867188 L 0.0507812 0.40625 Z M 249.511719 0.40625 " fill-opacity="1" fill-rule="nonzero"/></g></g></g></g></g></g><g clip-path="url(#eb93e86a2f)"><g clip-path="url(#2b053a38c7)"><path stroke-linecap="butt" transform="matrix(0, 0.384906, -0.384906, 0, 257.513214, 450.404941)" fill="none" stroke-linejoin="miter" d="M 196.226257 631.164571 C 226.387846 641.424788 260.679908 648.153299 294.33261 648.153299 C 327.995461 648.153299 360.379589 642.388904 390.226573 632.128686 C 390.865933 631.803931 391.495145 631.803931 392.134506 631.489325 C 504.215459 590.458603 586.774183 482.112329 588.357362 357.173122 L 588.357362 0.00388568 L 0.00340088 0.00388568 L 0.00340088 356.909259 C 1.58658 482.75169 82.876731 591.097964 196.226257 631.164571 Z M 196.226257 631.164571 " stroke="#000000" stroke-width="15.588225" stroke-opacity="1" stroke-miterlimit="4"/></g></g><g clip-path="url(#9d944b38fb)"><g transform="matrix(1, 0, 0, 1, 254, 450)"><g clip-path="url(#2cc4eed867)"><g clip-path="url(#aae25099ff)"><path fill="#ff914d" d="M 0.769531 0.40625 L 149.554688 0.40625 L 149.554688 227.074219 L 0.769531 227.074219 Z M 0.769531 0.40625 " fill-opacity="1" fill-rule="nonzero"/></g></g></g></g><g clip-path="url(#290cc17e3f)"><path stroke-linecap="butt" transform="matrix(0.384906, 0, 0, 0.384906, 254.768039, 450.407701)" fill="none" stroke-linejoin="miter" d="M 0.00387587 -0.0037697 L 386.543141 -0.0037697 L 386.543141 588.350235 L 0.00387587 588.350235 Z M 0.00387587 -0.0037697 " stroke="#000000" stroke-width="15.588225" stroke-opacity="1" stroke-miterlimit="4"/></g><g clip-path="url(#937c1591e5)"><g transform="matrix(1, 0, 0, 1, 336, 452)"><g clip-path="url(#a02c3c958f)"><g clip-path="url(#07b60f184d)"><path fill="#ff914d" d="M 0.0507812 0.363281 L 69.996094 0.363281 L 69.996094 223.046875 L 0.0507812 223.046875 Z M 0.0507812 0.363281 " fill-opacity="1" fill-rule="nonzero"/></g></g></g></g></g></g></svg>